<svg xmlns="http://www.w3.org/2000/svg" viewBox="0 0 32 32" role="img" aria-label="Tutoring platform">
  <defs>
    <linearGradient id="capGrad" x1="0%" y1="0%" x2="100%" y2="100%">
      <stop offset="0%" stop-color="#38bdf8"/>
      <stop offset="100%" stop-color="#0284c7"/>
    </linearGradient>
    <linearGradient id="bookLeft" x1="0%" y1="0%" x2="100%" y2="100%">
      <stop offset="0%" stop-color="#fafaf9"/>
      <stop offset="100%" stop-color="#e7e5e4"/>
    </linearGradient>
    <linearGradient id="bookRight" x1="0%" y1="0%" x2="100%" y2="100%">
      <stop offset="0%" stop-color="#f5f5f4"/>
      <stop offset="100%" stop-color="#d6d3d1"/>
    </linearGradient>
  </defs>
  <!-- Soft sky-blue backdrop -->
  <rect width="32" height="32" rx="7" fill="#e0f2fe"/>
  <!-- Open book -->
  <path d="M4 22.5 C4 20.5 6 19.5 8 19.5 L16 19.5 L16 26.5 C13 26.5 8.5 27 4 25.5 Z" fill="url(#bookLeft)"/>
  <path d="M28 22.5 C28 20.5 26 19.5 24 19.5 L16 19.5 L16 26.5 C19 26.5 23.5 27 28 25.5 Z" fill="url(#bookRight)"/>
  <path d="M15.2 19.5 L16.8 19.5 L16.5 26.8 L15.5 26.8 Z" fill="#a8a29e"/>
  <path d="M7 20.5 L14.5 21.5" stroke="#d6d3d1" stroke-width="0.6" stroke-linecap="round"/>
  <path d="M17.5 21.5 L25 20.5" stroke="#a8a29e" stroke-width="0.6" stroke-linecap="round"/>
  <path d="M7.5 22.5 L14 23.2" stroke="#d6d3d1" stroke-width="0.5" stroke-linecap="round"/>
  <path d="M18 23.2 L24.5 22.5" stroke="#a8a29e" stroke-width="0.5" stroke-linecap="round"/>
  <!-- Graduation cap -->
  <path d="M16 6.5 L4.5 11.5 L16 16.5 L27.5 11.5 Z" fill="url(#capGrad)"/>
  <path d="M27.5 11.5 L27.5 14.5 C27.5 15.8 22.5 17.5 16 17.5 C9.5 17.5 4.5 15.8 4.5 14.5 L4.5 11.5" fill="#0369a1"/>
  <path d="M28.5 11 L29.5 17.5 C29.5 18.2 28.8 18.5 28.2 18.2 L25.5 16.8" fill="#0ea5e9"/>
  <circle cx="29" cy="18.5" r="1.1" fill="#fbbf24"/>
  <!-- Pencil accent -->
  <rect x="20" y="8" width="2.2" height="7.5" rx="0.4" transform="rotate(25 21.1 11.75)" fill="#78716c"/>
  <polygon points="22.8,7.2 24.2,8.6 21.8,9.2" fill="#fbbf24" transform="rotate(25 23 8.2)"/>
</svg>
